# xmcd
#
# Track frame offsets:
# 150
# 16694
# 37117
# 49944
# 67342
# 93142
# 105037
# 131754
# 150599
# 166841
# 186014
# 202739
# 218184
# 240191
# 264834
# 274379
# 290194
# 305624
#
# Disc length: 4421 seconds
#
# Revision: 0
# Processed by: cddbd v1.4b42PL1 Copyright (c) Steve Scherf et al.
# Submitted via: Audion 2.5.0 (http://www.panic.com/audion/)
#
DISCID=f5114312
DTITLE=Adam Again - Homeboys/Dig
DYEAR=1900
DGENRE=
TTITLE0=Homeboys
TTITLE1=The Fine Line
TTITLE2=Hide Away
TTITLE3=Bad News On The Radio
TTITLE4=Inner City Blues
TTITLE5=Dance Around In Circles
TTITLE6=This Band is Our House
TTITLE7=Save Me
TTITLE8=Occam's Razor
TTITLE9=Deep
TTITLE10=It Is What It Is (What It Is)
TTITLE11=Dig
TTITLE12=Hopeless, Etc.
TTITLE13=Songwork
TTITLE14=World Wide
TTITLE15=Walk Between The Raindrops
TTITLE16=Hidden, Hidden
TTITLE17=River On Fire
EXTD=
EXTT0=
EXTT1=
EXTT2=
EXTT3=
EXTT4=
EXTT5=
EXTT6=
EXTT7=
EXTT8=
EXTT9=
EXTT10=
EXTT11=
EXTT12=
EXTT13=
EXTT14=
EXTT15=
EXTT16=
EXTT17=
PLAYORDER=
